<svg width="1200" height="630" viewBox="0 0 1200 630" fill="none" xmlns="http://www.w3.org/2000/svg"><rect width="1200" height="630" fill="#F7F6FB"/><rect width="245" height="630" fill="#201B38"/><text x="36" y="64" fill="white" font-family="Arial" font-size="20" font-weight="700">⌁ toolcall theater</text><text x="36" y="145" fill="#AAA3C0" font-family="Arial" font-size="11" font-weight="700">DEMO TRACES</text><rect x="22" y="164" width="202" height="58" rx="10" fill="#342D57"/><circle cx="43" cy="188" r="5" fill="#A69CFF"/><text x="57" y="185" fill="#CFC9E5" font-family="Arial" font-size="10">Research assistant</text><text x="57" y="202" fill="white" font-family="Arial" font-size="12" font-weight="700">Vendor brief with sources</text><text x="305" y="75" fill="#6848EB" font-family="Arial" font-size="11" font-weight="700">RESEARCH ASSISTANT</text><text x="305" y="119" fill="#161329" font-family="Arial" font-size="35" font-weight="700">Vendor brief with sources</text><rect x="305" y="157" width="850" height="104" rx="15" fill="white" stroke="#E7E4EF"/><text x="334" y="193" fill="#89839E" font-family="Arial" font-size="10" font-weight="700">AGENT TASK</text><text x="334" y="222" fill="#161329" font-family="Arial" font-size="16" font-weight="700">Prepare a focused vendor brief for a security review.</text><rect x="305" y="282" width="550" height="290" rx="15" fill="white" stroke="#E7E4EF"/><text x="332" y="316" fill="#89839E" font-family="Arial" font-size="10" font-weight="700">LIVE TRACE</text><text x="332" y="342" fill="#161329" font-family="Arial" font-size="17" font-weight="700">Reasoning with receipts</text><circle cx="347" cy="388" r="14" fill="#EDEAFF"/><text x="342" y="394" fill="#6848EB" font-family="Arial" font-size="14">✦</text><text x="379" y="384" fill="#161329" font-family="Arial" font-size="13" font-weight="700">Plan the evidence trail</text><text x="379" y="404" fill="#76718C" font-family="Arial" font-size="11">I need current policies and independent reports.</text><circle cx="347" cy="448" r="14" fill="#E2F7F8"/><text x="342" y="454" fill="#16818A" font-family="Arial" font-size="14">⌘</text><text x="379" y="444" fill="#161329" font-family="Arial" font-size="13" font-weight="700">Search knowledge base</text><text x="379" y="464" fill="#76718C" font-family="Arial" font-size="11">knowledge.search</text><rect x="875" y="282" width="280" height="290" rx="15" fill="white" stroke="#E7E4EF"/><text x="901" y="316" fill="#89839E" font-family="Arial" font-size="10" font-weight="700">INSPECTOR</text><text x="901" y="342" fill="#161329" font-family="Arial" font-size="16" font-weight="700">Search knowledge base</text><text x="901" y="385" fill="#89839E" font-family="Arial" font-size="10" font-weight="700">TOOL</text><text x="901" y="407" fill="#4E37BB" font-family="monospace" font-size="12">knowledge.search</text><text x="901" y="449" fill="#89839E" font-family="Arial" font-size="10" font-weight="700">INPUT</text><rect x="901" y="464" width="228" height="67" rx="7" fill="#F7F6FB"/><text x="914" y="488" fill="#504A62" font-family="monospace" font-size="10">{ query: "Northstar..." }</text></svg>
